<?xml version="1.0" encoding="UTF-8"?>
<!DOCTYPE svg PUBLIC "-//W3C//DTD SVG 1.1//EN" "http://www.w3.org/Graphics/SVG/1.1/DTD/svg11.dtd">
<!-- Creator: CorelDRAW 2020 (64 Bit) -->
<svg xmlns="http://www.w3.org/2000/svg" xml:space="preserve" width="107px" height="29px" version="1.1" style="shape-rendering:geometricPrecision; text-rendering:geometricPrecision; image-rendering:optimizeQuality; fill-rule:evenodd; clip-rule:evenodd"
viewBox="0 0 7.43 2.01"
 xmlns:xlink="http://www.w3.org/1999/xlink"
 xmlns:xodm="http://www.corel.com/coreldraw/odm/2003">
 <defs>
  <style type="text/css">
   <![CDATA[
    .fil0 {fill:white}
   ]]>
  </style>
 </defs>
 <g id="Camada_x0020_1">
  <metadata id="CorelCorpID_0Corel-Layer"/>
  <path id="LogoHorizMono" class="fil0" d="M0.89 0.03l-0.89 0.99 1.95 0 -0.2 -0.99 -0.86 0zm2.12 1.69c-0.03,0 -0.06,0.01 -0.08,0.02l0.01 -0.02 -0.04 0 -0.06 0.29 0.04 0 0.02 -0.12c0.02,0.03 0.05,0.04 0.08,0.04 0.07,0 0.12,-0.05 0.12,-0.12 0,-0.06 -0.04,-0.09 -0.09,-0.09zm0.98 -1.19l0.78 0 -0.04 0.21 -0.78 0 0.04 -0.21zm2.55 0.28l0.78 0 -0.04 0.21 -0.78 0 0.04 -0.21zm-3.01 0c-0.04,0.01 -0.08,0.02 -0.12,0.02 -0.17,0 -0.26,-0.09 -0.26,-0.23 0,-0.21 0.13,-0.36 0.35,-0.36 0.1,0 0.18,0.03 0.25,0.11l0.21 -0.16c-0.09,-0.12 -0.24,-0.19 -0.45,-0.19 -0.39,0 -0.66,0.26 -0.66,0.62 0,0.27 0.21,0.45 0.52,0.45 0.16,0 0.3,-0.04 0.41,-0.12l0.03 -0.14 -0.28 0zm3.12 -0.57l0.78 0 -0.04 0.21 -0.78 0 0.04 -0.21zm-0.41 0.24l0.18 0 0.04 -0.21 -0.18 0 0.05 -0.24 -0.27 0 -0.05 0.24 -0.12 0 -0.04 0.21 0.12 0 -0.05 0.25c-0.01,0.03 -0.01,0.05 -0.01,0.08 0,0.14 0.1,0.22 0.26,0.22 0.07,0 0.15,-0.01 0.2,-0.04l-0.03 -0.19c-0.03,0.01 -0.05,0.02 -0.08,0.02 -0.05,0 -0.07,-0.02 -0.07,-0.06 0,-0.01 0,-0.02 0,-0.03l0.05 -0.25zm-0.77 -0.25c-0.09,0 -0.18,0.03 -0.24,0.09l0.01 -0.08 -0.26 0 -0.15 0.78 0.27 0 0.08 -0.38c0.02,-0.12 0.09,-0.18 0.18,-0.18 0.07,0 0.11,0.04 0.11,0.1 0,0.02 0,0.04 -0.01,0.06l-0.08 0.4 0.28 0 0.08 -0.43c0.01,-0.03 0.01,-0.07 0.01,-0.1 0,-0.17 -0.11,-0.26 -0.28,-0.26zm-1.42 0.01l0.78 0 -0.04 0.21 -0.78 0 0.04 -0.21zm-0.12 0.57l0.79 0 -0.05 0.21 -0.78 0 0.04 -0.21zm-0.11 -0.07l0.04 -0.21 -0.49 0 -0.04 0.21 0.49 0zm2.77 -0.21l0.78 0 -0.04 0.21 -0.78 0 0.04 -0.21zm-3.64 0.93c-0.02,0.01 -0.04,0.02 -0.06,0.02 -0.07,0 -0.1,-0.04 -0.1,-0.09 0,-0.07 0.05,-0.12 0.13,-0.12 0.03,0 0.06,0.01 0.08,0.03l0.03 -0.03c-0.02,-0.02 -0.06,-0.04 -0.11,-0.04 -0.11,0 -0.17,0.07 -0.17,0.17 0,0.07 0.05,0.11 0.13,0.11 0.04,0 0.08,-0.01 0.1,-0.03l0.03 -0.11 -0.04 0 -0.02 0.09zm0.17 -0.13l0.01 -0.03 -0.04 0 -0.04 0.21 0.04 0 0.02 -0.1c0.01,-0.05 0.04,-0.07 0.08,-0.07 0,0 0.01,0 0.01,0l0.01 -0.04c-0.04,0 -0.07,0.01 -0.09,0.03zm0.3 -0.03l-0.03 0.11c-0.01,0.05 -0.03,0.07 -0.08,0.07 -0.03,0 -0.04,-0.02 -0.04,-0.04 0,-0.01 0,-0.02 0,-0.02l0.02 -0.12 -0.04 0 -0.02 0.12c0,0.01 0,0.01 0,0.02 0,0.05 0.03,0.07 0.07,0.07 0.03,0 0.06,-0.01 0.08,-0.03l-0.01 0.03 0.04 0 0.04 -0.21 -0.03 0zm0.21 0c-0.03,0 -0.05,0.01 -0.07,0.03l0 -0.03 -0.03 0 -0.06 0.29 0.04 0 0.02 -0.12c0.01,0.03 0.04,0.04 0.08,0.04 0.07,0 0.12,-0.05 0.12,-0.12 0,-0.06 -0.04,-0.09 -0.1,-0.09zm-0.02 0.18c-0.04,0 -0.07,-0.02 -0.07,-0.06 0,-0.05 0.04,-0.09 0.09,-0.09 0.04,0 0.06,0.02 0.06,0.06 0,0.05 -0.04,0.09 -0.08,0.09zm0.25 0.03c0.07,0 0.12,-0.05 0.12,-0.12 0,-0.06 -0.04,-0.09 -0.1,-0.09 -0.07,0 -0.12,0.05 -0.12,0.12 0,0.06 0.04,0.09 0.1,0.09zm0 -0.03c-0.04,0 -0.06,-0.02 -0.06,-0.06 0,-0.05 0.03,-0.09 0.08,-0.09 0.04,0 0.06,0.02 0.06,0.06 0,0.05 -0.03,0.09 -0.08,0.09zm0.48 -0.26l-0.02 0.12c-0.01,-0.03 -0.04,-0.04 -0.08,-0.04 -0.07,0 -0.12,0.05 -0.12,0.12 0,0.06 0.04,0.09 0.1,0.09 0.03,0 0.05,-0.01 0.07,-0.03l0 0.03 0.03 0 0.06 -0.29 -0.04 0zm-0.12 0.26c-0.04,0 -0.06,-0.02 -0.06,-0.06 0,-0.05 0.04,-0.09 0.08,-0.09 0.04,0 0.07,0.02 0.07,0.06 0,0.05 -0.04,0.09 -0.09,0.09zm0.39 -0.06c0,-0.01 0,-0.02 0,-0.03 0,-0.06 -0.04,-0.09 -0.09,-0.09 -0.07,0 -0.12,0.05 -0.12,0.12 0,0.06 0.04,0.09 0.1,0.09 0.03,0 0.06,-0.01 0.08,-0.03l-0.01 -0.02c-0.02,0.01 -0.04,0.02 -0.07,0.02 -0.04,0 -0.07,-0.02 -0.07,-0.06l0 0 0.18 0zm-0.1 -0.09c0.04,0 0.07,0.02 0.07,0.06l-0.14 0c0.01,-0.04 0.04,-0.06 0.07,-0.06zm0.49 -0.06l0.01 -0.04 -0.2 0 -0.05 0.28 0.2 0 0.01 -0.03 -0.17 0 0.02 -0.09 0.14 0 0.01 -0.04 -0.14 0 0.01 -0.08 0.16 0zm0.17 0.03c-0.03,0 -0.06,0.01 -0.08,0.03l0.01 -0.03 -0.04 0 -0.04 0.21 0.04 0 0.02 -0.11c0.01,-0.05 0.04,-0.07 0.08,-0.07 0.03,0 0.05,0.02 0.05,0.05 0,0 0,0.01 0,0.01l-0.03 0.12 0.04 0 0.03 -0.12c0,-0.01 0,-0.01 0,-0.02 0,-0.05 -0.03,-0.07 -0.08,-0.07zm0.33 0l0 0.04c-0.02,-0.03 -0.05,-0.04 -0.08,-0.04 -0.07,0 -0.12,0.05 -0.12,0.12 0,0.05 0.03,0.08 0.09,0.08 0.03,0 0.06,-0.01 0.08,-0.03l-0.01 0.02c-0.01,0.04 -0.03,0.07 -0.08,0.07 -0.03,0 -0.06,-0.01 -0.08,-0.03l-0.02 0.03c0.02,0.02 0.06,0.03 0.1,0.03 0.07,0 0.11,-0.03 0.12,-0.11l0.04 -0.18 -0.04 0zm-0.1 0.17c-0.04,0 -0.07,-0.02 -0.07,-0.06 0,-0.04 0.04,-0.08 0.09,-0.08 0.04,0 0.06,0.02 0.06,0.06 0,0.04 -0.03,0.08 -0.08,0.08zm0.38 -0.05c0.01,-0.01 0.01,-0.02 0.01,-0.03 0,-0.06 -0.04,-0.09 -0.1,-0.09 -0.07,0 -0.12,0.05 -0.12,0.12 0,0.06 0.04,0.09 0.1,0.09 0.04,0 0.07,-0.01 0.09,-0.03l-0.02 -0.02c-0.01,0.01 -0.04,0.02 -0.06,0.02 -0.05,0 -0.07,-0.02 -0.07,-0.06l0 0 0.17 0zm-0.09 -0.09c0.04,0 0.06,0.02 0.06,0.06l-0.14 0c0.01,-0.04 0.04,-0.06 0.08,-0.06zm0.28 -0.03c-0.03,0 -0.06,0.01 -0.08,0.03l0.01 -0.03 -0.04 0 -0.04 0.21 0.04 0 0.02 -0.11c0.01,-0.05 0.04,-0.07 0.08,-0.07 0.03,0 0.05,0.02 0.05,0.05 0,0 0,0.01 -0.01,0.01l-0.02 0.12 0.04 0 0.02 -0.12c0,-0.01 0.01,-0.01 0.01,-0.02 0,-0.05 -0.03,-0.07 -0.08,-0.07zm0.27 0c-0.03,0 -0.05,0.01 -0.07,0.03l0.02 -0.11 -0.04 0 -0.06 0.29 0.04 0 0.02 -0.11c0.01,-0.05 0.04,-0.07 0.08,-0.07 0.03,0 0.05,0.02 0.05,0.05 0,0 0,0.01 0,0.01l-0.03 0.12 0.04 0 0.03 -0.12c0,-0.01 0,-0.01 0,-0.02 0,-0.05 -0.03,-0.07 -0.08,-0.07zm0.33 0l-0.01 0.04c-0.01,-0.03 -0.04,-0.04 -0.07,-0.04 -0.07,0 -0.12,0.05 -0.12,0.12 0,0.06 0.03,0.09 0.09,0.09 0.03,0 0.06,-0.01 0.07,-0.03l0 0.03 0.04 0 0.04 -0.21 -0.04 0zm-0.1 0.18c-0.04,0 -0.07,-0.02 -0.07,-0.06 0,-0.05 0.04,-0.09 0.09,-0.09 0.04,0 0.06,0.02 0.06,0.06 0,0.05 -0.03,0.09 -0.08,0.09zm0.24 -0.15l0.01 -0.03 -0.04 0 -0.04 0.21 0.04 0 0.02 -0.1c0.01,-0.05 0.04,-0.07 0.08,-0.07 0,0 0.01,0 0.01,0l0.01 -0.04c-0.04,0 -0.07,0.01 -0.09,0.03zm0.16 -0.07c0.02,0 0.03,-0.01 0.03,-0.03 0,-0.01 -0.01,-0.02 -0.02,-0.02 -0.02,0 -0.03,0.01 -0.03,0.03 0,0.01 0.01,0.02 0.02,0.02zm-0.07 0.25l0.04 0 0.04 -0.21 -0.04 0 -0.04 0.21zm0.32 -0.21l-0.01 0.04c-0.01,-0.03 -0.04,-0.04 -0.08,-0.04 -0.07,0 -0.12,0.05 -0.12,0.12 0,0.06 0.04,0.09 0.1,0.09 0.03,0 0.05,-0.01 0.07,-0.03l0 0.03 0.03 0 0.05 -0.21 -0.04 0zm-0.1 0.18c-0.04,0 -0.07,-0.02 -0.07,-0.06 0,-0.05 0.04,-0.09 0.09,-0.09 0.04,0 0.06,0.02 0.06,0.06 0,0.05 -0.04,0.09 -0.08,0.09zm-0.76 0.14c-0.1,0 0.08,0 0,0zm-3.28 0.28c-0.04,0 -0.06,-0.02 -0.06,-0.06 0,-0.05 0.03,-0.09 0.08,-0.09 0.04,0 0.06,0.02 0.06,0.06 0,0.05 -0.03,0.09 -0.08,0.09zm0.35 -0.18l-0.01 0.03c-0.01,-0.02 -0.04,-0.03 -0.07,-0.03 -0.07,0 -0.12,0.05 -0.12,0.12 0,0.06 0.04,0.09 0.09,0.09 0.03,0 0.06,-0.01 0.08,-0.03l-0.01 0.03 0.04 0 0.04 -0.21 -0.04 0zm-0.1 0.18c-0.04,0 -0.06,-0.02 -0.06,-0.06 0,-0.05 0.03,-0.09 0.08,-0.09 0.04,0 0.06,0.02 0.06,0.06 0,0.05 -0.03,0.09 -0.08,0.09zm0.24 -0.15l0 -0.03 -0.03 0 -0.05 0.21 0.04 0 0.02 -0.11c0.01,-0.04 0.04,-0.07 0.08,-0.07 0.01,0 0.01,0 0.01,0l0.01 -0.03c-0.04,0 -0.06,0.01 -0.08,0.03zm0.28 -0.03l-0.01 0.03c-0.01,-0.02 -0.04,-0.03 -0.07,-0.03 -0.07,0 -0.12,0.05 -0.12,0.12 0,0.06 0.04,0.09 0.09,0.09 0.03,0 0.06,-0.01 0.08,-0.03l-0.01 0.03 0.04 0 0.04 -0.21 -0.04 0zm-0.1 0.18c-0.04,0 -0.06,-0.02 -0.06,-0.06 0,-0.05 0.03,-0.09 0.08,-0.09 0.04,0 0.06,0.02 0.06,0.06 0,0.05 -0.03,0.09 -0.08,0.09zm0.49 -0.02c-0.02,0.01 -0.04,0.02 -0.06,0.02 -0.07,0 -0.1,-0.04 -0.1,-0.09 0,-0.07 0.05,-0.13 0.13,-0.13 0.03,0 0.06,0.01 0.08,0.04l0.03 -0.03c-0.02,-0.03 -0.06,-0.04 -0.11,-0.04 -0.11,0 -0.17,0.07 -0.17,0.17 0,0.07 0.05,0.11 0.13,0.11 0.04,0 0.08,-0.01 0.1,-0.03l0.03 -0.11 -0.04 0 -0.02 0.09zm0.3 -0.04c0.01,-0.01 0.01,-0.02 0.01,-0.03 0,-0.06 -0.04,-0.09 -0.1,-0.09 -0.07,0 -0.12,0.05 -0.12,0.12 0,0.06 0.04,0.09 0.1,0.09 0.04,0 0.07,-0.01 0.09,-0.03l-0.02 -0.03c-0.01,0.02 -0.04,0.03 -0.06,0.03 -0.05,0 -0.07,-0.02 -0.07,-0.06l0 0 0.17 0zm-0.09 -0.09c0.04,0 0.06,0.02 0.06,0.06l-0.14 0c0.01,-0.04 0.04,-0.06 0.08,-0.06zm0.19 0.18c0.05,0 0.09,-0.02 0.09,-0.07 0,-0.07 -0.11,-0.04 -0.11,-0.08 0,-0.02 0.02,-0.03 0.05,-0.03 0.02,0 0.05,0 0.06,0.02l0.02 -0.03c-0.02,-0.02 -0.05,-0.02 -0.08,-0.02 -0.05,0 -0.09,0.02 -0.09,0.07 0,0.07 0.12,0.04 0.12,0.08 0,0.02 -0.02,0.03 -0.06,0.03 -0.03,0 -0.06,-0.01 -0.07,-0.02l-0.02 0.03c0.02,0.01 0.05,0.02 0.09,0.02zm0.2 -0.18l0.07 0 0 -0.03 -0.06 0 0.01 -0.05 -0.04 0 -0.01 0.05 -0.03 0 -0.01 0.03 0.04 0 -0.03 0.11c0,0.01 0,0.01 0,0.02 0,0.03 0.02,0.05 0.06,0.05 0.01,0 0.03,0 0.05,-0.01l-0.01 -0.03c-0.01,0.01 -0.02,0.01 -0.03,0.01 -0.02,0 -0.03,-0.01 -0.03,-0.03 0,0 0,0 0,-0.01l0.02 -0.11zm0.2 -0.09c0.02,0 0.03,0.03 0.05,0.03 0.03,0 0.04,-0.02 0.05,-0.05l-0.02 0c-0.01,0.01 -0.01,0.02 -0.03,0.02 -0.01,0 -0.02,-0.02 -0.05,-0.02 -0.02,0 -0.04,0.01 -0.04,0.05l0.02 0c0,-0.02 0.01,-0.03 0.02,-0.03zm0.08 0.06l-0.01 0.03c-0.01,-0.02 -0.04,-0.03 -0.07,-0.03 -0.07,0 -0.12,0.05 -0.12,0.12 0,0.06 0.04,0.09 0.09,0.09 0.03,0 0.06,-0.01 0.08,-0.03l-0.01 0.03 0.04 0 0.04 -0.21 -0.04 0zm-0.1 0.18c-0.04,0 -0.06,-0.02 -0.06,-0.06 0,-0.05 0.03,-0.09 0.08,-0.09 0.04,0 0.06,0.02 0.06,0.06 0,0.05 -0.03,0.09 -0.08,0.09zm0.26 0.03c0.08,0 0.13,-0.05 0.13,-0.12 0,-0.06 -0.04,-0.09 -0.1,-0.09 -0.07,0 -0.13,0.05 -0.13,0.12 0,0.06 0.04,0.09 0.1,0.09zm0.01 -0.03c-0.04,0 -0.07,-0.02 -0.07,-0.06 0,-0.05 0.04,-0.09 0.09,-0.09 0.04,0 0.06,0.02 0.06,0.06 0,0.05 -0.04,0.09 -0.08,0.09zm0.32 0.03l0.04 0 0.05 -0.24 0.09 0 0.01 -0.04 -0.23 0 -0.01 0.04 0.1 0 -0.05 0.24zm0.36 -0.09c0,-0.01 0,-0.02 0,-0.03 0,-0.06 -0.04,-0.09 -0.1,-0.09 -0.07,0 -0.12,0.05 -0.12,0.12 0,0.06 0.04,0.09 0.11,0.09 0.03,0 0.06,-0.01 0.08,-0.03l-0.02 -0.03c-0.01,0.02 -0.04,0.03 -0.06,0.03 -0.05,0 -0.07,-0.02 -0.07,-0.06l0 0 0.18 0zm-0.1 -0.09c0.04,0 0.06,0.02 0.06,0.06l-0.13 0c0,-0.04 0.03,-0.06 0.07,-0.06zm0.2 0l0 -0.03 -0.04 0 -0.04 0.21 0.04 0 0.02 -0.11c0.01,-0.04 0.04,-0.07 0.08,-0.07 0.01,0 0.01,0 0.01,0l0.01 -0.03c-0.04,0 -0.07,0.01 -0.08,0.03zm0.15 0l0.01 -0.03 -0.04 0 -0.04 0.21 0.04 0 0.02 -0.11c0.01,-0.04 0.03,-0.07 0.08,-0.07 0,0 0,0 0.01,0l0 -0.03c-0.03,0 -0.06,0.01 -0.08,0.03zm0.16 -0.07c0.01,0 0.02,-0.01 0.02,-0.03 0,-0.01 -0.01,-0.02 -0.02,-0.02 -0.02,0 -0.03,0.01 -0.03,0.03 0,0.01 0.01,0.02 0.03,0.02zm-0.08 0.25l0.04 0 0.04 -0.21 -0.04 0 -0.04 0.21zm0.19 -0.18l0.06 0 0.01 -0.03 -0.07 0 0.01 -0.05 -0.03 0 -0.01 0.05 -0.04 0 -0.01 0.03 0.04 0 -0.02 0.11c0,0.01 -0.01,0.01 -0.01,0.02 0,0.03 0.03,0.05 0.06,0.05 0.02,0 0.04,0 0.05,-0.01l-0.01 -0.03c-0.01,0.01 -0.02,0.01 -0.03,0.01 -0.02,0 -0.03,-0.01 -0.03,-0.03 0,0 0,0 0.01,-0.01l0.02 -0.11zm0.17 0.18c0.07,0 0.12,-0.05 0.12,-0.12 0,-0.06 -0.03,-0.09 -0.1,-0.09 -0.07,0 -0.12,0.05 -0.12,0.12 0,0.06 0.04,0.09 0.1,0.09zm0 -0.03c-0.04,0 -0.06,-0.02 -0.06,-0.06 0,-0.05 0.03,-0.09 0.08,-0.09 0.04,0 0.07,0.02 0.07,0.06 0,0.05 -0.04,0.09 -0.09,0.09zm0.22 -0.15l0.01 -0.03 -0.04 0 -0.04 0.21 0.04 0 0.02 -0.11c0.01,-0.04 0.04,-0.07 0.08,-0.07 0,0 0.01,0 0.01,0l0.01 -0.03c-0.04,0 -0.07,0.01 -0.09,0.03zm0.16 -0.07c0.01,0 0.02,-0.01 0.02,-0.03 0,-0.01 -0.01,-0.02 -0.02,-0.02 -0.02,0 -0.03,0.01 -0.03,0.03 0,0.01 0.01,0.02 0.03,0.02zm-0.08 0.25l0.04 0 0.04 -0.21 -0.03 0 -0.05 0.21zm0.31 -0.21l0 0.03c-0.02,-0.02 -0.04,-0.03 -0.08,-0.03 -0.07,0 -0.12,0.05 -0.12,0.12 0,0.06 0.04,0.09 0.09,0.09 0.03,0 0.06,-0.01 0.08,-0.03l-0.01 0.03 0.04 0 0.04 -0.21 -0.04 0zm-0.1 0.18c-0.04,0 -0.06,-0.02 -0.06,-0.06 0,-0.05 0.03,-0.09 0.08,-0.09 0.04,0 0.06,0.02 0.06,0.06 0,0.05 -0.03,0.09 -0.08,0.09zm0.17 0.03l0.03 0 0.06 -0.3 -0.03 0 -0.06 0.3zm-5.15 -0.07l0.37 0c-0.03,-0.03 -0.06,-0.05 -0.08,-0.09 -0.01,-0.02 -0.02,-0.05 -0.03,-0.08 -0.01,-0.04 -0.02,-0.08 -0.04,-0.1 -0.02,-0.01 -0.04,-0.02 -0.05,-0.02 -0.02,0 -0.03,0 -0.05,0.01 -0.01,0 -0.02,0.02 -0.03,0.04 -0.01,0.02 -0.02,0.04 -0.04,0.06 -0.02,0.01 -0.04,0.02 -0.07,0.03 -0.03,0.02 -0.06,0.03 -0.07,0.06 -0.01,0.02 0,0.03 0.01,0.04 0.02,0.02 0.05,0.05 0.08,0.05zm0.35 -0.84l-0.17 0 0.02 0.06c0.04,0.02 0.05,0.04 0.06,0.08 0,0.03 0.01,0.06 0.05,0.06 0.02,0 0.05,0 0.08,0l-0.04 -0.2zm-0.15 0.1l0.09 0.45 -0.05 0c0.03,0.02 0.04,0.07 0.05,0.11 0.01,0.03 0.02,0.06 0.03,0.08 0.02,0.04 0.06,0.07 0.09,0.1l0.1 0 -0.04 -0.23 0 0c-0.03,-0.02 -0.05,-0.03 -0.06,-0.04 -0.03,-0.02 -0.04,-0.05 -0.05,-0.09 -0.02,-0.05 -0.04,-0.11 -0.1,-0.11l-0.01 -0.03c0.02,0 0.04,0.01 0.06,0.01 0.04,0.02 0.06,0.07 0.07,0.12 0.02,0.03 0.03,0.06 0.05,0.08 0,0 0.01,0.01 0.03,0.02l-0.07 -0.34c-0.03,0 -0.07,0 -0.09,0 -0.06,-0.01 -0.07,-0.04 -0.07,-0.08 0,-0.02 -0.01,-0.04 -0.03,-0.05zm-0.11 0.45l-0.36 0c-0.02,0.02 -0.04,0.04 -0.05,0.07 -0.01,0.04 -0.02,0.08 -0.02,0.11 0.01,0.04 0.03,0.07 0.04,0.11l0.23 0c-0.01,-0.01 -0.03,-0.02 -0.04,-0.03 -0.01,-0.02 -0.02,-0.04 -0.01,-0.07 0.01,-0.03 0.05,-0.05 0.09,-0.07 0.03,-0.01 0.05,-0.02 0.06,-0.03 0.02,-0.02 0.03,-0.03 0.03,-0.05 0.01,-0.02 0.02,-0.03 0.03,-0.04zm-0.4 0l-0.6 0c0,0.02 0,0.06 0.02,0.07 0.02,0.01 0.05,0.01 0.07,0.01 0.02,-0.01 0.05,-0.01 0.08,0 0.05,0.01 0.09,0.06 0.1,0.1 0.02,0.04 0.03,0.08 0.02,0.11l0.29 0c-0.02,-0.04 -0.03,-0.07 -0.04,-0.11 0,-0.03 0.01,-0.07 0.02,-0.11 0.01,-0.03 0.02,-0.05 0.04,-0.07zm-0.63 0l-0.18 0 -0.32 0.29 0.79 0c0,-0.03 0,-0.06 -0.01,-0.09 -0.02,-0.04 -0.05,-0.09 -0.09,-0.1 -0.03,0 -0.05,0 -0.07,0 -0.03,0.01 -0.06,0.01 -0.09,-0.01 -0.03,-0.02 -0.02,-0.06 -0.03,-0.09zm-0.13 -0.27l0.66 0 0.01 -0.06 -0.64 0 -0.03 0.06zm1.07 -0.81l-0.15 0 0.01 0.08 0.15 0 -0.01 -0.08zm-0.13 0.1l0 0.03 0.15 0 -0.01 -0.03 -0.14 0zm0 0.04l0.05 0.26 0.15 0 -0.05 -0.26 -0.04 0 0.02 0.16 -0.01 0 -0.02 -0.16 -0.1 0zm0.05 0.27l0.01 0.07 0.16 0 -0.01 -0.07 -0.16 0zm0.01 0.08l0.02 0.13 -0.15 0 -0.03 0.33 -0.01 0 0.42 0 -0.09 -0.46 -0.16 0zm-0.16 0.13l-0.12 0 -0.06 0.33 0.15 0 0.03 -0.33zm-0.15 0l-0.29 0 -0.03 0.11 0.3 0 0.02 -0.11zm-0.3 0l-0.28 0 -0.07 0.11 0.31 0 0.04 -0.11zm-0.31 0l-0.13 0 -0.26 0.33 0.18 0 0.21 -0.33zm-0.17 0l-0.29 0 -0.33 0.33 0.37 0c0.03,-0.04 0.06,-0.09 0.1,-0.13l-0.34 0 0.02 -0.01 0.33 0c0.03,-0.05 0.06,-0.09 0.09,-0.13l-0.3 0 0.02 -0.02 0.3 0 0.03 -0.04zm-0.01 0.33l0.74 0 -0.01 0 0.02 -0.13 -0.66 0 -0.09 0.13zm0.27 -1.11c-0.1,0 -0.24,0.08 -0.16,0.15 0.03,0.04 0.09,0.05 0.13,0.05 0.05,0 0.11,-0.01 0.15,-0.04 0.06,-0.05 0.05,-0.1 -0.01,-0.13 -0.03,-0.02 -0.07,-0.03 -0.11,-0.03zm-0.01 0.06c-0.02,0 -0.05,0.01 -0.06,0.03 -0.01,0.02 0.02,0.04 0.05,0.04 0.04,0 0.07,-0.02 0.07,-0.04 0,-0.02 -0.03,-0.03 -0.06,-0.03zm-0.14 -0.06c0.1,-0.05 0.23,-0.05 0.3,0 0.05,0.02 0.07,0.06 0.07,0.12 -0.01,0.03 -0.03,0.07 -0.07,0.1 -0.11,0.07 -0.27,0.07 -0.36,-0.01 -0.02,-0.02 -0.04,-0.06 -0.04,-0.09 0.01,-0.06 0.06,-0.1 0.1,-0.12z"/>
 </g>
</svg>
