<?xml version="1.0" encoding="UTF-8"?>
<!DOCTYPE svg PUBLIC "-//W3C//DTD SVG 1.1//EN" "http://www.w3.org/Graphics/SVG/1.1/DTD/svg11.dtd">
<!-- Creator: CorelDRAW 2020 (64 Bit) -->
<svg xmlns="http://www.w3.org/2000/svg" xml:space="preserve" width="60px" height="42px" version="1.1" style="shape-rendering:geometricPrecision; text-rendering:geometricPrecision; image-rendering:optimizeQuality; fill-rule:evenodd; clip-rule:evenodd"
viewBox="0 0 2.02 1.42"
 xmlns:xlink="http://www.w3.org/1999/xlink"
 xmlns:xodm="http://www.corel.com/coreldraw/odm/2003">
 <defs>
  <style type="text/css">
   <![CDATA[
    .fil0 {fill:white}
   ]]>
  </style>
 </defs>
 <g id="Camada_x0020_1">
  <metadata id="CorelCorpID_0Corel-Layer"/>
  <path id="LogoVertMono" class="fil0" d="M0.69 0l-0.69 0.77 1.51 0 -0.15 -0.77 -0.67 0zm0.93 1.42l0.29 0c-0.02,-0.02 -0.05,-0.04 -0.06,-0.07 -0.01,-0.02 -0.01,-0.04 -0.02,-0.06 -0.01,-0.04 -0.02,-0.07 -0.03,-0.08 -0.02,-0.01 -0.03,-0.01 -0.04,-0.02 -0.02,0 -0.03,0 -0.04,0.01 -0.01,0 -0.02,0.02 -0.02,0.03 -0.01,0.02 -0.02,0.03 -0.04,0.05 -0.01,0.01 -0.03,0.02 -0.05,0.02 -0.02,0.02 -0.05,0.03 -0.06,0.05 0,0.01 0,0.02 0.01,0.03 0.01,0.02 0.04,0.04 0.06,0.04zm0.27 -0.65l-0.12 0 0.01 0.05c0.03,0 0.04,0.03 0.05,0.06 0,0.02 0,0.04 0.03,0.04 0.02,0 0.04,0 0.06,0l-0.03 -0.15zm-0.11 0.07l0.07 0.35 -0.04 0c0.03,0.02 0.04,0.06 0.04,0.09 0.01,0.02 0.01,0.04 0.02,0.06 0.02,0.03 0.05,0.05 0.07,0.08l0.08 0 -0.03 -0.18 0 0c-0.02,-0.01 -0.04,-0.02 -0.05,-0.03 -0.02,-0.01 -0.03,-0.04 -0.04,-0.07 -0.01,-0.04 -0.02,-0.08 -0.08,-0.09l0 -0.02c0.02,0 0.03,0.01 0.05,0.01 0.03,0.01 0.04,0.05 0.05,0.09 0.01,0.03 0.02,0.05 0.04,0.06 0,0.01 0.01,0.01 0.02,0.02l-0.05 -0.27c-0.03,0.01 -0.05,0.01 -0.07,0 -0.05,0 -0.05,-0.03 -0.06,-0.06 0,-0.01 -0.01,-0.03 -0.02,-0.04zm-0.08 0.35l-0.29 0c-0.01,0.02 -0.03,0.04 -0.03,0.06 -0.02,0.03 -0.02,0.06 -0.02,0.08 0,0.03 0.02,0.06 0.03,0.09l0.18 0c-0.01,-0.01 -0.02,-0.01 -0.03,-0.02 -0.01,-0.02 -0.02,-0.03 -0.01,-0.06 0.01,-0.02 0.04,-0.04 0.07,-0.05 0.02,-0.01 0.04,-0.02 0.05,-0.03 0.01,-0.01 0.02,-0.02 0.02,-0.04 0.01,-0.01 0.02,-0.02 0.03,-0.03zm-0.32 0l-0.46 0c0,0.02 0,0.05 0.01,0.06 0.02,0.01 0.04,0.01 0.06,0 0.02,0 0.04,0 0.06,0 0.04,0.01 0.07,0.05 0.08,0.09 0.01,0.02 0.02,0.05 0.01,0.08l0.22 0c0,-0.03 -0.02,-0.05 -0.02,-0.08 0,-0.03 0,-0.06 0.01,-0.1 0.01,-0.01 0.02,-0.03 0.03,-0.05zm-0.49 0l-0.13 0 -0.25 0.23 0.61 0c0,-0.02 0,-0.05 -0.01,-0.07 -0.01,-0.03 -0.04,-0.07 -0.07,-0.08 -0.02,0 -0.04,0 -0.05,0 -0.03,0.01 -0.05,0.01 -0.07,0 -0.03,-0.02 -0.02,-0.05 -0.03,-0.08zm-0.1 -0.21l0.51 0 0.01 -0.04 -0.49 0 -0.03 0.04zm0.83 -0.63l-0.11 0 0.01 0.07 0.11 0 -0.01 -0.07zm-0.1 0.08l0.01 0.02 0.11 0 0 -0.02 -0.12 0zm0.01 0.04l0.03 0.19 0.12 0 -0.04 -0.19 -0.03 0 0.02 0.11 -0.02 0.01 -0.01 -0.12 -0.07 0zm0.03 0.21l0.01 0.04 0.12 0 -0.01 -0.04 -0.12 0zm0.01 0.06l0.02 0.09 -0.12 0 -0.02 0.26 -0.01 0 0.33 0 -0.07 -0.35 -0.13 0zm-0.12 0.09l-0.1 0 -0.05 0.26 0.12 0 0.03 -0.26zm-0.12 0l-0.23 0 -0.02 0.09 0.23 0 0.02 -0.09zm-0.24 0l-0.21 0 -0.05 0.09 0.24 0 0.02 -0.09zm-0.23 0l-0.11 0 -0.2 0.26 0.14 0 0.17 -0.26zm-0.14 0l-0.22 0 -0.26 0.26 0.29 0c0.02,-0.03 0.05,-0.06 0.07,-0.1l-0.26 0 0.02 -0.01 0.25 0c0.03,-0.03 0.05,-0.07 0.08,-0.1l-0.24 0 0.01 -0.01 0.24 0 0.02 -0.04zm0 0.26l0.57 0 -0.01 0 0.02 -0.1 -0.52 0 -0.06 0.1zm0.2 -0.86c-0.08,0 -0.18,0.06 -0.12,0.12 0.03,0.02 0.07,0.03 0.11,0.03 0.03,0 0.08,-0.01 0.11,-0.03 0.05,-0.03 0.03,-0.07 -0.01,-0.1 -0.02,-0.01 -0.05,-0.02 -0.09,-0.02zm0 0.04c-0.02,0 -0.04,0.01 -0.05,0.03 0,0.01 0.02,0.03 0.04,0.03 0.03,0 0.05,-0.01 0.05,-0.03 0,-0.02 -0.02,-0.03 -0.04,-0.03zm-0.11 -0.04c0.07,-0.04 0.17,-0.04 0.24,0 0.03,0.02 0.05,0.05 0.04,0.09 0,0.03 -0.02,0.06 -0.05,0.08 -0.08,0.06 -0.21,0.05 -0.27,0 -0.03,-0.03 -0.04,-0.05 -0.04,-0.08 0.01,-0.04 0.05,-0.07 0.08,-0.09z"/>
 </g>
</svg>
